<svg height="512" viewBox="0 0 64 64" width="512" xmlns="http://www.w3.org/2000/svg"><g id="Book-Online-Arrow-Direct-Learing-Cursor"><path d="m56.07 4.24a1.988 1.988 0 0 0 -1.84-1.24h-33.79a2.009 2.009 0 0 0 -1.9 1.37l-14.66 44a2 2 0 0 0 1.89 2.63h34.23l2.23-6.26-7.23-17.74 11.07 6.92 10.05-28.29a1.949 1.949 0 0 0 -.05-1.39zm-8.51 5.08-3.33 10a1.014 1.014 0 0 1 -.95.68h-19.89a1 1 0 0 1 -.95-1.32l3.33-10a1.014 1.014 0 0 1 .95-.68h19.89a1 1 0 0 1 .95 1.32z" fill="#bddbff"/><path d="m53.48 38.55-7.41-4.63-11.07-6.92 7.23 17.74 3.77 9.26 2-11 4.12-.37 6.88-.63z" fill="#bddbff"/><g fill="#57a4ff"><path d="m48.24 7.83a2.027 2.027 0 0 0 -1.63-.83h-19.89a2.009 2.009 0 0 0 -1.9 1.37l-3.33 10a1.993 1.993 0 0 0 1.9 2.63h19.89a2.009 2.009 0 0 0 1.9-1.37l3.33-10a2.022 2.022 0 0 0 -.27-1.8zm-4.96 11.17h-19.89l3.33-10h19.89z"/><path d="m57.07 5.95-8.13 24.4a1 1 0 1 1 -1.9-.64l8.13-24.39a.963.963 0 0 0 -.13-.9.983.983 0 0 0 -.81-.42h-33.79a1 1 0 0 0 -.95.68l-14.66 44a.963.963 0 0 0 .13.9.983.983 0 0 0 .81.42h34.23a1 1 0 0 1 0 2h-33.35a3 3 0 0 0 -2.65 2.98v2.02a3.009 3.009 0 0 0 3 3h38.28l.76-2.3a1 1 0 1 1 1.9.64l-.99 2.98a1.014 1.014 0 0 1 -.95.68h-39a5 5 0 0 1 -5-5v-2.02a4.973 4.973 0 0 1 1.75-3.78 2.923 2.923 0 0 1 -.41-.45 2.957 2.957 0 0 1 -.41-2.7l14.67-44a2.978 2.978 0 0 1 2.84-2.05h33.79a3 3 0 0 1 2.84 3.95z"/><path d="m61.316 15.051a1 1 0 0 0 -1.265.633l-6 18a1 1 0 0 0 1.9.632l6-18a1 1 0 0 0 -.635-1.265z"/><path d="m59.53 41.15-24-15a.992.992 0 0 0 -1.17.08 1.008 1.008 0 0 0 -.29 1.15l11 27a1.011 1.011 0 0 0 .93.62.34.34 0 0 0 .1-.01.977.977 0 0 0 .88-.81l1.87-10.25 10.24-.93a1.006 1.006 0 0 0 .44-1.85zm-11.62.85a1 1 0 0 0 -.89.82l-1.39 7.62-8.54-20.95 18.86 11.78z"/></g></g></svg>